<svg width="10" height="16" viewBox="0 0 10 16" fill="none" xmlns="http://www.w3.org/2000/svg">
<path d="M8.5 0H1.5C0.672848 0 0 0.672619 0 1.49949V14.495C0 15.3219 0.672848 15.9945 1.5 15.9945H8.5C9.32715 15.9945 10 15.3219 10 14.495V1.49949C10 0.672619 9.32715 0 8.5 0ZM1.5 0.999658H8.5C8.77588 0.999658 9 1.2237 9 1.49949V11.9959H1V1.49949C1 1.2237 1.22412 0.999658 1.5 0.999658ZM8.5 14.9949H1.5C1.22412 14.9949 1 14.7708 1 14.495V12.9956H9V14.495C9 14.7708 8.77588 14.9949 8.5 14.9949Z" fill="#757575"/>
</svg>
